<?xml version="1.0" encoding="UTF-8" standalone="no"?><!DOCTYPE svg PUBLIC "-//W3C//DTD SVG 1.1//EN" "http://www.w3.org/Graphics/SVG/1.1/DTD/svg11.dtd"><svg width="100%" height="100%" viewBox="0 0 1871 792" version="1.1" xmlns="http://www.w3.org/2000/svg" xmlns:xlink="http://www.w3.org/1999/xlink" xml:space="preserve" xmlns:serif="http://www.serif.com/" style="fill-rule:evenodd;clip-rule:evenodd;stroke-linecap:round;stroke-linejoin:round;stroke-miterlimit:1.5;"><rect id="Artboard1" x="0" y="0" width="1870.84" height="791.635" style="fill:none;"/><clipPath id="_clip1"><rect x="0" y="0" width="1870.84" height="791.635"/></clipPath><g clip-path="url(#_clip1)"><rect x="-0" y="0" width="1870.84" height="791.635" style="fill:#fff;"/><path id="camera" d="M1136.15,400.928l0,363.872c0,8.388 -6.81,15.198 -15.198,15.198l-363.872,0c-8.389,0 -15.199,-6.81 -15.199,-15.198l0,-363.872c0,-8.389 6.81,-15.199 15.199,-15.199l363.872,0c8.388,0 15.198,6.81 15.198,15.199Z" style="fill:#fff;stroke:#000;stroke-width:2.5px;"/><g id="Basler"><g id="USB-connector" serif:id="USB connector"><circle cx="1060.63" cy="676.151" r="14.103" style="fill:none;stroke:#000;stroke-width:1px;"/><circle cx="817.41" cy="676.151" r="14.103" style="fill:none;stroke:#000;stroke-width:1px;"/><path id="USB-contour" serif:id="USB contour" d="M1089.82,647.391l-0,57.52c-0,15.419 -12.519,27.938 -27.939,27.938l-245.719,-0c-15.419,-0 -27.938,-12.519 -27.938,-27.938l-0,-57.52c-0,-15.42 12.519,-27.939 27.938,-27.939l245.719,0c15.42,0 27.939,12.519 27.939,27.939Z" style="fill:none;stroke:#000;stroke-width:2px;"/><path id="rect3439" d="M1016.27,664.586c2.15,-0 3.881,1.729 3.881,3.879l-0,15.558c-0,2.149 -1.731,3.88 -3.881,3.88l-25.846,-0m-0,-0l-25.796,-0c-2.149,-0 -3.862,-1.731 -3.88,-3.88l0.002,-6.147l-4.9,0l-10.364,10.141l-77.295,0.035l-10.312,-10.208l0.036,-13.593l-0,-0.002l90.057,0.002l68.299,0.334" style="fill:none;fill-rule:nonzero;stroke:#000;stroke-width:1px;stroke-miterlimit:3;"/><rect x="884.109" y="669.338" width="108.633" height="6.005" style="fill:none;stroke:#000;stroke-width:0.5px;"/><path id="USB-contour1" serif:id="USB contour" d="M1030.21,664.899l-0,22.503c-0,6.033 -4.898,10.931 -10.931,10.931l-160.521,-0c-6.032,-0 -10.93,-4.898 -10.93,-10.931l-0,-22.503c-0,-6.033 4.898,-10.931 10.93,-10.931l160.521,0c6.033,0 10.931,4.898 10.931,10.931Z" style="fill:none;stroke:#000;stroke-width:2px;"/></g><g id="GPIO-connector" serif:id="GPIO connector"><path id="detail" d="M1030.21,429.66l-0,7.422l-16.912,0l-0,-7.37c2.793,-0.497 5.668,-0.757 8.604,-0.757c2.832,0 5.607,0.242 8.308,0.705Zm-16.912,96.225l-0,-7.37l16.912,-0l-0,7.421c-2.701,0.464 -5.476,0.705 -8.308,0.705c-2.936,0 -5.811,-0.259 -8.604,-0.756Z" style="fill:none;stroke:#000;stroke-width:0.56px;"/><circle id="plug-contour" serif:id="plug contour" cx="1021.9" cy="477.798" r="78.241" style="fill:none;stroke:#000;stroke-width:2px;"/><path id="plug" d="M966.462,495.344c-1.753,-5.537 -2.698,-11.432 -2.698,-17.546c-0,-5.641 0.805,-11.095 2.306,-16.255l9.504,0c2.609,-7.427 6.955,-14.039 12.55,-19.349l-4.825,-7.855c4.726,-4.201 10.141,-7.645 16.053,-10.138l4.804,7.821c5.505,-2.139 11.49,-3.312 17.747,-3.312c7.602,0 14.802,1.732 21.228,4.822l5.628,-7.303c5.569,2.909 10.61,6.694 14.938,11.171l-5.594,7.258c8.002,8.736 12.888,20.372 12.888,33.14c-0,1.074 -0.035,2.139 -0.103,3.195l8.879,2.492c-0.606,6.228 -2.196,12.17 -4.613,17.667l-8.818,-2.476c-0.988,2.098 -2.12,4.114 -3.384,6.036l6.421,6.644c-3.814,5.382 -8.52,10.089 -13.901,13.905l-6.377,-6.598c-7.787,5.195 -17.138,8.224 -27.192,8.224c-20.912,-0 -38.787,-13.105 -45.855,-31.543l-9.586,-0Z" style="fill:none;stroke:#000;stroke-width:2px;"/><g id="pins"><circle cx="1021.75" cy="452.885" r="3.196" style="fill:none;stroke:#000;stroke-width:1px;"/><path d="M1046.1,463.744c0.882,1.527 0.358,3.484 -1.17,4.366c-1.527,0.881 -3.484,0.357 -4.366,-1.17c-0.881,-1.528 -0.357,-3.484 1.17,-4.366c1.528,-0.882 3.484,-0.358 4.366,1.17Z" style="fill:none;stroke:#000;stroke-width:1px;"/><path d="M1046.1,491.853c-0.882,1.528 -2.838,2.052 -4.366,1.17c-1.527,-0.882 -2.051,-2.838 -1.17,-4.366c0.882,-1.527 2.839,-2.052 4.366,-1.17c1.528,0.882 2.052,2.839 1.17,4.366Z" style="fill:none;stroke:#000;stroke-width:1px;"/><circle cx="1021.75" cy="502.712" r="3.196" style="fill:none;stroke:#000;stroke-width:1px;"/><path d="M1002.95,488.657c0.882,1.528 0.358,3.484 -1.17,4.366c-1.528,0.882 -3.484,0.358 -4.366,-1.17c-0.882,-1.527 -0.358,-3.484 1.17,-4.366c1.528,-0.882 3.484,-0.357 4.366,1.17Z" style="fill:none;stroke:#000;stroke-width:1px;"/><path d="M1002.95,466.94c-0.882,1.527 -2.838,2.051 -4.366,1.17c-1.528,-0.882 -2.052,-2.839 -1.17,-4.366c0.882,-1.528 2.838,-2.052 4.366,-1.17c1.528,0.882 2.052,2.838 1.17,4.366Z" style="fill:none;stroke:#000;stroke-width:1px;"/></g></g><g><g transform="matrix(1,0,0,1,-288.824,145.437)"><text x="814.825px" y="475.562px" style="font-family:'CascadiaMonoRoman-Regular', 'Cascadia Mono', monospace;font-size:40px;">L<tspan x="837.862px 860.9px 883.937px 906.975px 930.012px " y="475.562px 475.562px 475.562px 475.562px 475.562px ">ine 1</tspan></text><g transform="matrix(35,0,0,35,953.45,510.562)"></g><text x="420.247px" y="510.562px" style="font-family:'CascadiaMonoRoman-Regular', 'Cascadia Mono', monospace;font-size:35px;fill:#727272;">Opto-isolated Input/Output</text></g><g><g transform="matrix(35,0,0,35,1744.87,419.56)"></g><text x="1211.66px" y="419.56px" style="font-family:'CascadiaMonoRoman-Regular', 'Cascadia Mono', monospace;font-size:35px;fill:#727272;">Opto-isolated Input/Output</text><g transform="matrix(40,0,0,40,1352.29,373.803)"></g><text x="1211.66px" y="373.803px" style="font-family:'CascadiaMonoRoman-Regular', 'Cascadia Mono', monospace;font-size:40px;">Line 2</text></g><g><g><text x="1214.38px" y="620.999px" style="font-family:'CascadiaMonoRoman-Regular', 'Cascadia Mono', monospace;font-size:35px;fill:#727272;">GPIO (Non-isolated Input/Output)</text></g><g transform="matrix(40,0,0,40,1350.46,577.452)"></g><text x="1209.84px" y="577.452px" style="font-family:'CascadiaMonoRoman-Regular', 'Cascadia Mono', monospace;font-size:40px;">Line 4</text></g><g><g><g transform="matrix(35,0,0,35,1498.68,255.734)"></g><text x="1088.52px" y="255.734px" style="font-family:'CascadiaMonoRoman-Regular', 'Cascadia Mono', monospace;font-size:35px;fill:#727272;">Opto-isolated Ground</text></g><g transform="matrix(40,0,0,40,1276.02,216.133)"></g><text x="1088.52px" y="216.133px" style="font-family:'CascadiaMonoRoman-Regular', 'Cascadia Mono', monospace;font-size:40px;">Opto GND</text></g><g><g transform="matrix(35,0,0,35,816.298,298.772)"></g><text x="508.681px" y="298.772px" style="font-family:'CascadiaMonoRoman-Regular', 'Cascadia Mono', monospace;font-size:35px;fill:#727272;">Ground for GPIO</text><g transform="matrix(40,0,0,40,815.366,256.202)"></g><text x="745.053px" y="256.202px" style="font-family:'CascadiaMonoRoman-Regular', 'Cascadia Mono', monospace;font-size:40px;">GND</text></g><g><g transform="matrix(35,0,0,35,665.451,503.187)"></g><text x="9.201px" y="503.187px" style="font-family:'CascadiaMonoRoman-Regular', 'Cascadia Mono', monospace;font-size:35px;fill:#727272;">GPIO (Non-isolated Input/Output)</text><g transform="matrix(40,0,0,40,665.451,457.187)"></g><text x="524.826px" y="457.187px" style="font-family:'CascadiaMonoRoman-Regular', 'Cascadia Mono', monospace;font-size:40px;">Line 3</text></g></g><g><path d="M1000.18,490.255l-317.704,-44.678" style="fill:none;stroke:#000;stroke-width:3px;"/><path d="M1043.33,490.255l150.965,78.301" style="fill:none;stroke:#000;stroke-width:3px;"/><path d="M1043.33,465.342l150.965,-98.711" style="fill:none;stroke:#000;stroke-width:3px;"/><path d="M1021.75,452.885l47.983,-239.958" style="fill:none;stroke:#000;stroke-width:3px;"/><path d="M1000.18,465.342l-166.536,-219.118" style="fill:none;stroke:#000;stroke-width:3px;"/><path d="M1021.75,502.712l-339.28,103.044" style="fill:none;stroke:#000;stroke-width:3px;"/></g><g><g><path d="M426.78,116.147l0,-42.079c0,-3.097 -4.177,-3.983 -4.177,-3.983l-9,0l0,63.023l49.3,-0c-0,-0 4.095,0.529 4.095,-4.346l-0,-8.042l-35.078,0c-5.983,0 -5.14,-4.573 -5.14,-4.573Z" style="fill:#00457d;fill-rule:nonzero;"/><path d="M267.945,99.278c0.35,-0.37 0.704,-0.78 1.045,-1.218c2.085,-2.786 3.288,-6.513 3.288,-10.232c-0,-5.275 -2.298,-10.166 -6.242,-13.384c-5.151,-4.36 -10.975,-4.36 -15.655,-4.36l-37.072,0c-6.024,0 -6.722,4.258 -6.722,4.258l0,58.764l46.927,0c6.47,0 11.525,-1.413 15.033,-4.211c4.151,-3.331 6.537,-8.717 6.537,-14.776c-0,-6.193 -2.643,-11.587 -7.139,-14.841Zm-48.193,-13.676c-0,-2.921 2.569,-3.279 4.928,-3.279l25.784,-0c3.734,-0 5.378,0.557 6.081,1.009c1.116,0.723 2.316,2.403 2.316,4.89c0,1.142 -0.187,2.648 -1.57,3.944c-1.94,1.793 -4.987,1.945 -7.692,1.945l-29.847,-0l-0,-8.509Zm40.478,33.121c-1.662,1.755 -4.411,1.997 -6.878,1.997l-33.6,0l-0,-14.141l29.461,0c7.319,0 9.739,1.427 10.535,2.29l0.284,0.27c0.296,0.269 1.807,1.754 1.807,5.06c-0,2.637 -1.227,4.132 -1.609,4.524Z" style="fill:#00457d;fill-rule:nonzero;"/><path d="M484.719,106.428l40.761,0c3.487,0 3.133,-3.057 3.133,-3.057l0,-9.338l-43.893,-0l-0,-8.268c-0,-2.916 2.563,-3.272 4.912,-3.272l1.622,-0l1.101,-0.014l36.275,-0c-0,-0 3.588,0.202 3.588,-3.398l0,-8.996l-54.767,0c-6.345,0 -5.911,4.377 -5.911,4.377l-0,58.644l59.564,0c-0,0 3.38,0.185 3.38,-3.415l-0,-8.972l-49.765,0l-0,-14.291Z" style="fill:#00457d;fill-rule:nonzero;"/><path d="M351.379,121.596c8.072,-0.015 20.361,-0.03 25.086,-0.03c0.494,0 1.105,-0.004 1.792,-0.034c4.933,-0.148 16.509,0.215 17.61,-6.211c0.075,-0.394 0.138,-0.69 0.111,-1.003c-0.213,-2.528 -1.406,-7.029 -18.396,-7.802c-9.35,-0.388 -15.997,-0.691 -21.652,-2.831c-6.815,-2.55 -10.371,-7.309 -10.583,-14.139l-0.05,-0.6c-0,-11.641 9.582,-18.143 26.824,-18.886c0.973,-0.032 1.967,-0.067 2.992,-0.067l1.221,0.016l0.516,-0.016c7.985,0 15.807,0.046 29.264,0.076l0,7.962c0,4.289 -4.977,3.919 -4.977,3.919c-11.028,-0.021 -18.095,-0.039 -23.227,-0.039c-0.476,-0 -1.099,0.009 -1.784,0.033l-0.706,-0.037c-0.805,0 -1.946,0.017 -3.274,0.106c-5.135,0.293 -13.383,1.042 -13.383,5.966c0,0.377 0.031,0.704 0.102,1.012c0.462,1.842 2.484,4.172 16.582,4.783l0.835,0.039c9.544,0.369 17.083,1.74 23.05,4.315c6.946,2.985 10.454,8.336 10.454,15.883c0,0.376 -0.008,0.796 -0.03,1.229l0,0.145l-0.082,0.668c-0.646,6.969 -4.05,16.445 -28.879,17.046l-0.113,0.07l-0.808,-0.024l-0.937,0.024c-8.603,-0 -17.217,-0.042 -27.469,-0.059c-0,0.006 -4.045,-8.175 -4.045,-8.175c0,0 -1.45,-3.315 3.956,-3.339Z" style="fill:#00457d;fill-rule:nonzero;"/><path d="M633.628,48.961c-5.784,-5.746 -13.358,-6.373 -13.358,-6.373c-15.039,6.416 -30.153,15.573 -30.153,15.573c0,-0 22.649,-10.216 45.952,-5.465c-0.001,0.002 -1.308,-2.609 -2.441,-3.735Z" style="fill:#f49f22;fill-rule:nonzero;"/><path d="M661.794,42.127c-6.637,-10.017 -24.565,-6.543 -36.067,-3.009c3.296,0.901 21.548,2.428 14.932,30.165c-3.93,16.471 -15.746,35.862 -15.23,36.834c0.713,1.343 47.961,-46.48 36.365,-63.99Z" style="fill:#00457d;fill-rule:nonzero;"/><path d="M589.79,107.6c2.843,-0.623 5.821,-1.721 8.407,-3.728c1.604,-1.264 2.927,-2.769 3.984,-4.463c0.063,-0.115 0.146,-0.237 0.213,-0.354c1.693,-2.87 2.6,-6.269 2.6,-9.98c-0,-6.932 -3.418,-13.203 -8.959,-16.387c-4.72,-2.603 -10.093,-2.603 -14.013,-2.603l-37.116,0c-4.723,0 -4.97,3.711 -4.97,3.711l0,59.312l9.697,-0c-0,-0 3.402,0.068 3.402,-3.98l0,-20.666l16.164,-0c-0,-0 0.249,-0.006 0.644,0.037c0.122,0.003 1.283,0.025 3.007,0.03l17.149,19.517l0.026,-0.014c1.233,1.401 2.056,2.331 2.056,2.331c-0,-0 2.244,2.792 7.045,2.742l13.301,0l-22.637,-25.505Zm-36.756,-11.613l-0,-10.045c-0,0 -0.476,-3.539 4.259,-3.539l24.88,0c2.693,0 5.25,0 7.08,1.415c1.012,0.746 2.191,2.518 2.191,5.025c-0,1.868 -0.626,3.708 -1.63,4.789c-2.035,2.191 -5.855,2.355 -10.991,2.355l-25.789,0Z" style="fill:#00457d;fill-rule:nonzero;"/><path d="M314.311,70.096l-5.256,0c-5.584,0 -6.003,0.839 -7.74,4.509c-3.595,7.584 -11.198,21.142 -17.548,34.008c3.412,-2.688 8.839,-5.448 16.91,-5.885l8.299,-15.056l9.489,18.973l-18.785,0l0.026,-0.043c-11.118,0.918 -16.624,6.626 -18.495,9.095c-4.334,8.729 -7.552,15.216 -7.552,15.216c-0,-0 -1.292,2.205 1.466,2.205l11.584,0l4.838,-9.807c-0,-0 2.148,-4.521 7.726,-4.521l25.264,0c0,0 4.265,8.405 5.505,10.879c0.96,1.913 1.649,3.448 5.193,3.448l2.148,0c3.242,0 6.064,0.005 8.59,0.005l-31.662,-63.026Z" style="fill:#00457d;fill-rule:nonzero;"/></g><g><path d="M330.337,171.148l0,-10.079l-2.323,-0l0,-2.196l2.323,-0l0,-5.041l2.489,0l-0,5.041l5.3,-0l-0,2.196l-5.3,-0l-0,9.759c-0,2.031 1.131,2.774 2.814,2.774c0.837,-0 1.55,-0.159 2.421,-0.578l0,2.132c-0.871,0.452 -1.81,0.709 -3.005,0.709c-2.682,0 -4.719,-1.325 -4.719,-4.717Z" style="fill:#00457d;fill-rule:nonzero;"/><path d="M341.874,151.99l2.487,-0l-0,9.792c1.098,-1.812 2.843,-3.263 5.717,-3.263c4.038,0 6.397,2.713 6.397,6.685l-0,10.37l-2.486,-0l-0,-9.756c-0,-3.102 -1.679,-5.038 -4.621,-5.038c-2.873,-0 -5.007,2.097 -5.007,5.232l-0,9.561l-2.487,-0l-0,-23.583Z" style="fill:#00457d;fill-rule:nonzero;"/><path d="M367.847,173.797c2.292,0 3.908,-0.937 5.266,-2.358l1.55,1.389c-1.679,1.873 -3.715,3.133 -6.882,3.133c-4.586,-0 -8.336,-3.52 -8.336,-8.721c-0,-4.846 3.395,-8.721 8.014,-8.721c4.941,0 7.786,3.941 7.786,8.85c0,0.226 0,0.487 -0.032,0.874l-13.247,-0c0.357,3.519 2.942,5.554 5.881,5.554Zm4.876,-7.56c-0.287,-3.035 -2.032,-5.618 -5.328,-5.618c-2.875,0 -5.071,2.389 -5.428,5.618l10.756,0Z" style="fill:#00457d;fill-rule:nonzero;"/><path d="M389.298,158.873l2.488,-0l0,3.358c1.356,-2.002 3.326,-3.712 6.397,-3.712c4.007,0 7.979,3.164 7.979,8.656l0,0.066c0,5.46 -3.939,8.689 -7.979,8.689c-3.103,-0 -5.107,-1.679 -6.397,-3.554l0,8.368l-2.488,-0l-0,-21.871Zm14.311,8.397l-0,-0.065c-0,-3.94 -2.713,-6.461 -5.879,-6.461c-3.103,-0 -6.042,2.617 -6.042,6.429l-0,0.066c-0,3.878 2.939,6.461 6.042,6.461c3.232,0.001 5.879,-2.39 5.879,-6.43Z" style="fill:#00457d;fill-rule:nonzero;"/><path d="M409.587,167.304l0,-0.064c0,-4.718 3.685,-8.721 8.721,-8.721c5.011,0 8.691,3.941 8.691,8.656l0,0.066c0,4.718 -3.715,8.721 -8.754,8.721c-5.007,-0.001 -8.658,-3.94 -8.658,-8.658Zm14.863,-0l-0,-0.064c-0,-3.588 -2.683,-6.525 -6.204,-6.525c-3.618,0 -6.108,2.937 -6.108,6.46l0,0.066c0,3.589 2.65,6.494 6.17,6.494c3.62,-0.001 6.142,-2.907 6.142,-6.431Z" style="fill:#00457d;fill-rule:nonzero;"/><path d="M427.872,158.873l2.651,-0l4.392,13.406l4.493,-13.47l2.069,0l4.52,13.47l4.394,-13.406l2.585,-0l-5.88,16.832l-2.166,-0l-4.489,-13.182l-4.523,13.182l-2.199,-0l-5.847,-16.832Z" style="fill:#00457d;fill-rule:nonzero;"/><path d="M463.832,173.797c2.292,0 3.91,-0.937 5.266,-2.358l1.553,1.389c-1.681,1.873 -3.718,3.133 -6.883,3.133c-4.588,-0 -8.336,-3.52 -8.336,-8.721c0,-4.846 3.393,-8.721 8.013,-8.721c4.946,0 7.787,3.941 7.787,8.85c-0,0.226 -0,0.487 -0.033,0.874l-13.247,-0c0.356,3.519 2.94,5.554 5.88,5.554Zm4.878,-7.56c-0.289,-3.035 -2.032,-5.618 -5.329,-5.618c-2.876,0 -5.072,2.389 -5.43,5.618l10.759,0Z" style="fill:#00457d;fill-rule:nonzero;"/><path d="M475.593,158.873l2.487,-0l-0,4.361c1.227,-2.78 3.652,-4.781 6.817,-4.651l0,2.68l-0.194,-0c-3.651,-0 -6.623,2.62 -6.623,7.659l-0,6.653l-2.487,0l-0,-16.702Z" style="fill:#00457d;fill-rule:nonzero;"/><path d="M496.135,167.304l0,-0.064c0,-4.718 3.682,-8.721 8.724,-8.721c5.008,0 8.688,3.941 8.688,8.656l0,0.066c0,4.718 -3.714,8.721 -8.753,8.721c-5.011,-0.001 -8.659,-3.94 -8.659,-8.658Zm14.863,-0l-0,-0.064c-0,-3.588 -2.682,-6.525 -6.204,-6.525c-3.62,0 -6.107,2.937 -6.107,6.46l0,0.066c0,3.589 2.649,6.494 6.17,6.494c3.617,-0.001 6.141,-2.907 6.141,-6.431Z" style="fill:#00457d;fill-rule:nonzero;"/><path d="M518.33,161.069l-2.298,-0l-0,-2.166l2.297,-0l-0,-1.455c-0,-1.904 0.515,-3.358 1.452,-4.295c0.838,-0.838 2.067,-1.293 3.588,-1.293c1.162,0 1.934,0.128 2.743,0.419l-0,2.168c-0.905,-0.259 -1.581,-0.421 -2.422,-0.421c-1.938,0 -2.906,1.162 -2.906,3.556l-0,1.354l5.298,0l-0,2.133l-5.267,-0l-0,14.505l-2.485,-0l-0,-14.505Z" style="fill:#00457d;fill-rule:nonzero;"/><path d="M537.546,173.444l1.261,-1.777c1.81,1.359 3.812,2.13 5.784,2.13c2.003,0 3.455,-1.033 3.455,-2.649l0,-0.063c0,-1.679 -1.971,-2.325 -4.167,-2.942c-2.616,-0.744 -5.524,-1.646 -5.524,-4.716l-0,-0.066c-0,-2.871 2.39,-4.78 5.685,-4.78c2.035,0 4.299,0.71 6.011,1.841l-1.131,1.872c-1.551,-1 -3.327,-1.612 -4.944,-1.612c-1.971,-0 -3.23,1.034 -3.23,2.421l0,0.064c0,1.585 2.067,2.198 4.298,2.877c2.585,0.776 5.365,1.777 5.365,4.783l-0,0.064c-0,3.166 -2.62,5.009 -5.947,5.009c-2.394,0.001 -5.04,-0.937 -6.916,-2.456Z" style="fill:#f49f22;fill-rule:nonzero;"/><path d="M554.442,152.476l2.845,-0l0,2.745l-2.845,-0l-0,-2.745Zm0.16,6.397l2.49,-0l-0,16.701l-2.49,-0l0,-16.701Z" style="fill:#f49f22;fill-rule:nonzero;"/><path d="M562.036,178.483l1.13,-1.937c1.906,1.387 4.04,2.13 6.429,2.13c3.684,-0 6.074,-2.033 6.074,-5.944l0,-1.971c-1.452,1.938 -3.488,3.52 -6.56,3.52c-4.004,0 -7.85,-3.005 -7.85,-7.82l-0,-0.061c-0,-4.877 3.876,-7.882 7.85,-7.882c3.136,-0 5.168,1.548 6.527,3.358l-0,-3.005l2.487,0l0,13.796c0,2.587 -0.774,4.559 -2.131,5.912c-1.485,1.485 -3.717,2.229 -6.366,2.229c-2.775,0 -5.36,-0.771 -7.59,-2.325Zm13.701,-12.052l-0,-0.066c-0,-3.42 -2.974,-5.651 -6.141,-5.651c-3.166,0 -5.783,2.195 -5.783,5.62l0,0.066c0,3.358 2.681,5.686 5.783,5.686c3.167,0.002 6.141,-2.293 6.141,-5.655Z" style="fill:#f49f22;fill-rule:nonzero;"/><path d="M583.034,151.99l2.487,-0l0,9.792c1.1,-1.812 2.842,-3.263 5.719,-3.263c4.039,0 6.395,2.713 6.395,6.685l0,10.37l-2.485,-0l0,-9.756c0,-3.102 -1.68,-5.038 -4.622,-5.038c-2.873,-0 -5.007,2.097 -5.007,5.232l0,9.561l-2.487,-0l0,-23.583Z" style="fill:#f49f22;fill-rule:nonzero;"/><path d="M603.161,171.148l-0,-10.079l-2.326,-0l0,-2.196l2.326,-0l-0,-5.041l2.487,0l0,5.041l5.301,-0l-0,2.196l-5.301,-0l0,9.759c0,2.031 1.132,2.774 2.813,2.774c0.84,-0 1.551,-0.159 2.423,-0.578l-0,2.132c-0.874,0.452 -1.813,0.709 -3.005,0.709c-2.684,0 -4.718,-1.325 -4.718,-4.717Z" style="fill:#f49f22;fill-rule:nonzero;"/></g></g></g></g></svg>